# xmcd CD database file
#
# Track frame offsets:
#	183
#	14445
#	29085
#	42850
#	57025
#	72100
#	85458
#	101253
#	115428
#	129660
#	141715
#	155108
#	168248
#	181740
#	193695
#	208820
#	222608
#	234625
#	249078
#	263685
#	277570
#	291835
#	304603
#	319478
#	332953
#
# Disc length: 4631 seconds
#
# Revision: 2
# Processed by: cddbd v1.5.2PL0 Copyright (c) Steve Scherf et al.
# Submitted via: CDex 2.18
#
DISCID=7c121519
DTITLE=Various Artist - Finest Vintage Jazz (1917-1941)
DYEAR=1993
DGENRE=Jazz
TTITLE0=Original Dixiland Jass Band - Livery Stable Blues
TTITLE1=Bessie Smith (with Loius Armstrong) - St. Loius Blues
TTITLE2=Bix Beiderbeck (with Frankie Trumbauer& His Orchestra) - Singin' The Blues
TTITLE3=Duke Ellington (with His Kentucky Club Orchestra) - East St. Louis Toodle-Oo
TTITLE4=Adelaide Hall (with Duke Ellington and His Orchestra) - Creole Love Call
TTITLE5=Red Nichols And His Five Pennies - Feelin' No Pain
TTITLE6=Louis Armstrong and His Hot Five - Savoy Blues
TTITLE7=Eddie Lang ''Blind Willie Dunn'' (with Lonnie Johnson) - A Handful Of Riffs
TTITLE8=Benny Carter and His Orchestra - Symphony In Riffs
TTITLE9=Fats Waller and His Rhythm - Honeysuckle Rose
TTITLE10=Django Reinhardt and Stephanie Grapelli (with the Quintet Of The Hot Club Of France) - I Got Rhythm
TTITLE11=Meade Lux Lewis - Honky Tonk Train Blues
TTITLE12=Andy Kirk and His Twelve Clouds Of Joy (with Mary Lou Williams) - Walkin' And Swingin'
TTITLE13=Ella Fitzgerald (with Chick Webb and His Orchestra) - Sing Me A Swing Song (And Let Me Dance)
TTITLE14=Tommy Dorsey and His Orchestra (with Bunny Berigan) - Marie
TTITLE15=Coleman Hawkins and His All Star Jam Band - Crazy Rhythm
TTITLE16=Lionel Hampton (with The Benny Goodman Quartet) - Runnin' Wild
TTITLE17=Jack Teagarden (with  Benny Goodman and His Orchestra) - I Gotta Right To Sing The Blues
TTITLE18=Benny Goodman and His Orchestra - Roll 'Em
TTITLE19=Billy Holliday (with Teddy Wilson and His Orchestra) - Easy Living
TTITLE20=Count Basie and His Orchestra - Jumpin' At The Woodside
TTITLE21=The Bob Crosby Orchestra (with Bob Haggart and Ray Bauduc) - The Big Noise From Winnetka
TTITLE22=Mugsy Spanier and His Ragtime Band - Relaxin' At The Touro
TTITLE23=Sidney Bechet (with Earl Hines) - Blues In Thirds
TTITLE24=Loius Armstrong and His Orchestra - When It's Sleepy Time Down South
EXTD=YEAR: 1993
EXTT0=
EXTT1=
EXTT2=
EXTT3=
EXTT4=
EXTT5=
EXTT6=
EXTT7=
EXTT8=
EXTT9=
EXTT10=
EXTT11=
EXTT12=
EXTT13=
EXTT14=
EXTT15=
EXTT16=
EXTT17=
EXTT18=
EXTT19=
EXTT20=
EXTT21=
EXTT22=
EXTT23=
EXTT24=
PLAYORDER=
